<svg width="83" height="11" viewBox="0 0 83 11" fill="none" xmlns="http://www.w3.org/2000/svg">
<path d="M5.69195 10V8.684H1.72295V0.9H0.168945V10H5.69195ZM12.6063 6.472C12.6063 4.407 11.4303 3.049 9.47035 3.049C7.46835 3.049 6.19435 4.575 6.19435 6.591C6.19435 8.642 7.46835 10.14 9.56135 10.14C11.0453 10.14 12.1303 9.454 12.4803 8.082L11.2763 7.823C11.0313 8.523 10.4993 8.915 9.55435 8.915C8.47635 8.915 7.80434 8.222 7.65734 7.046H12.5783C12.5993 6.836 12.6063 6.654 12.6063 6.472ZM9.46335 4.246C10.4433 4.246 11.0733 4.855 11.1573 5.975H7.67134C7.83234 4.897 8.47635 4.246 9.46335 4.246ZM19.9404 8.838C19.5414 8.838 19.4154 8.635 19.4154 8.229V5.863C19.4154 5.009 19.3244 3.049 16.5174 3.049C14.9284 3.049 13.8644 3.798 13.6334 5.219L14.9914 5.457C15.1594 4.645 15.6144 4.253 16.5314 4.253C17.6514 4.253 18.0014 4.911 18.0014 5.849V6.178C17.5464 6.108 17.0704 6.073 16.6224 6.073C14.7814 6.073 13.4234 6.605 13.4234 8.068C13.4234 9.314 14.3194 10.133 15.7684 10.133C16.8674 10.133 17.7144 9.692 18.1344 8.971C18.2324 9.727 18.5964 10.063 19.5554 10.063C19.8214 10.063 20.0454 10.042 20.3044 9.979V8.81C20.1714 8.831 20.0524 8.838 19.9404 8.838ZM16.1255 8.964C15.4395 8.964 14.9984 8.698 14.9984 8.033C14.9984 7.389 15.5654 7.109 16.7554 7.109C17.1684 7.109 17.5674 7.137 18.0014 7.186V8.04C17.6234 8.628 16.9025 8.964 16.1255 8.964ZM22.5903 3.182H21.2673V10H22.6813V6.738C22.6813 5.058 23.9483 4.365 25.2083 4.638V3.091C23.9763 2.846 23.0243 3.448 22.5973 4.575L22.5903 3.182ZM29.7133 3.049C28.5863 3.049 27.8163 3.595 27.4383 4.47L27.4313 3.182H26.0733V10H27.5294V6.591C27.5294 5.163 28.2854 4.407 29.3354 4.407C30.2734 4.407 30.7143 4.939 30.7143 6.094V10H32.1703V5.737C32.1703 4.064 31.4073 3.049 29.7133 3.049ZM43.8207 3.049C42.7427 3.049 42.0427 3.532 41.6787 4.351C41.3777 3.511 40.7267 3.049 39.6277 3.049C38.5707 3.049 37.8987 3.511 37.5347 4.281L37.5277 3.182H36.2048V10H37.6327V6.549C37.6327 5.121 38.2347 4.358 39.2567 4.358C40.1107 4.358 40.4327 4.897 40.4327 6.024V10H41.8677V6.549C41.8677 5.121 42.4557 4.358 43.4777 4.358C44.3387 4.358 44.6537 4.911 44.6537 6.024V10H46.0887V5.73C46.0887 4.078 45.4097 3.049 43.8207 3.049ZM50.5599 10.14C52.7019 10.14 54.0109 8.642 54.0109 6.591C54.0109 4.54 52.7019 3.049 50.5599 3.049C48.4109 3.049 47.1022 4.54 47.1022 6.591C47.1022 8.642 48.4109 10.14 50.5599 10.14ZM50.5599 8.838C49.3489 8.838 48.5579 7.928 48.5579 6.591C48.5579 5.261 49.3489 4.344 50.5599 4.344C51.7709 4.344 52.5619 5.261 52.5619 6.591C52.5619 7.928 51.7709 8.838 50.5599 8.838ZM56.4229 3.182H55.0999V10H56.5139V6.738C56.5139 5.058 57.7809 4.365 59.0409 4.638V3.091C57.8089 2.846 56.8569 3.448 56.4299 4.575L56.4229 3.182ZM65.7099 6.472C65.7099 4.407 64.5339 3.049 62.5739 3.049C60.5719 3.049 59.2979 4.575 59.2979 6.591C59.2979 8.642 60.5719 10.14 62.6649 10.14C64.1489 10.14 65.2339 9.454 65.5839 8.082L64.3799 7.823C64.1349 8.523 63.6029 8.915 62.6579 8.915C61.5799 8.915 60.9079 8.222 60.7609 7.046H65.6819C65.7029 6.836 65.7099 6.654 65.7099 6.472ZM62.5669 4.246C63.5469 4.246 64.1769 4.855 64.2609 5.975H60.7749C60.9359 4.897 61.5799 4.246 62.5669 4.246ZM72.2179 10.14C74.3599 10.14 75.6689 8.642 75.6689 6.591C75.6689 4.54 74.3599 3.049 72.2179 3.049C70.0689 3.049 68.7599 4.54 68.7599 6.591C68.7599 8.642 70.0689 10.14 72.2179 10.14ZM72.2179 8.838C71.0069 8.838 70.216 7.928 70.216 6.591C70.216 5.261 71.0069 4.344 72.2179 4.344C73.4289 4.344 74.2199 5.261 74.2199 6.591C74.2199 7.928 73.4289 8.838 72.2179 8.838ZM80.3969 3.049C79.2699 3.049 78.4999 3.595 78.1219 4.47L78.115 3.182H76.757V10H78.2129V6.591C78.2129 5.163 78.9689 4.407 80.0189 4.407C80.9569 4.407 81.3979 4.939 81.3979 6.094V10H82.854V5.737C82.854 4.064 82.0909 3.049 80.3969 3.049Z" fill="white"/>
</svg>
