<svg width="44" height="42" viewBox="0 0 44 42" fill="none" xmlns="http://www.w3.org/2000/svg">
<path d="M22.208 0.5C10.215 0.5 0.5 9.67438 0.5 21C0.5 32.3256 10.215 41.5 22.208 41.5C34.201 41.5 43.916 32.3256 43.916 21C43.916 9.67438 34.201 0.5 22.208 0.5ZM32.794 31.4082C32.459 31.6929 25.9935 35.6474 22.208 35.1096C18.456 34.5401 15.508 33.9707 14.57 33.3696C13.632 32.7685 11.153 30.6489 11.153 30.6489C11.153 30.6489 11.019 29.162 11.9905 27.7068C12.962 26.2199 13.0625 25.8086 13.3975 25.2076C13.7325 24.6065 14.0675 24.1636 14.57 23.3727C15.039 22.5818 16.4795 20.8102 16.4795 20.8102C16.4795 20.8102 16.8815 19.6713 17.0155 19.3866C17.1495 19.1019 17.3505 19.1968 16.781 18.6906C16.178 18.1844 15.039 15.8434 15.039 15.179C15.039 14.5463 14.101 11.0664 14.704 10.2122C15.2735 9.32638 16.0775 8.37732 16.714 7.93441C17.3505 7.52315 17.719 6.82715 18.0875 6.54243C18.4225 6.25771 18.8245 6.35262 19.0255 6.32099C19.2265 6.25772 20.332 5.7199 20.6 5.81481C20.8345 5.90972 21.1025 5.625 21.6385 5.81481C22.1745 6.00463 22.342 6.28935 22.7105 6.28935C23.0455 6.28935 23.481 6.00463 23.9835 6.19445C24.486 6.38426 24.5865 6.66898 24.8545 6.73225C25.156 6.82716 24.9885 6.82716 25.625 6.9537C26.2615 7.08025 26.7975 7.23842 26.9985 7.55478C27.1995 7.87114 27.635 8.1875 27.635 8.69367C27.635 9.19985 27.0655 9.57947 26.9985 9.76929C26.965 9.9591 27.6685 11.1929 27.635 11.3827C27.6015 11.5725 28.0705 12.2052 27.97 12.3951C27.8695 12.5849 27.6685 12.7747 27.769 13.2176C27.8695 13.6921 29.176 15.4321 29.176 15.6219C29.176 15.8117 29.377 16.0332 29.176 16.1281C28.975 16.223 28.3385 16.3179 28.2045 16.3179C28.0705 16.3179 27.97 16.3179 27.97 16.6026C27.97 16.8873 28.0705 17.0139 28.0035 17.2986C27.97 17.5833 27.903 17.9313 27.702 17.9946L27.836 18.9437C28.037 19.2284 28.439 19.26 28.372 19.8295C28.305 20.4306 28.6735 20.0509 28.305 20.4306C27.97 20.8102 27.97 20.6204 27.6685 20.9367C27.367 21.2531 26.9985 21.0633 26.5295 21.0633C26.094 21.0633 25.8595 20.9367 25.6585 21.2531C25.4575 21.5694 25.625 21.4429 25.424 21.7593C25.223 22.0756 24.687 21.9807 24.7875 22.3603C24.888 22.74 25.223 23.088 25.558 23.2461C25.893 23.3727 26.63 23.8789 26.5965 24.0687C26.563 24.2585 26.3955 24.4483 26.3955 24.5748C26.3955 24.7014 32.526 30.3009 33.0285 30.6489C33.531 30.9969 33.129 31.1235 32.794 31.4082Z" fill="#424653"/>
</svg>
